<svg version="1.2" xmlns="http://www.w3.org/2000/svg" viewBox="0 0 1500 1000" width="1500" height="1000">
	<title>5206722-ai</title>
	<style>
		.s0 { fill: #f27bb1 } 
		.s1 { fill: #f993c6 } 
		.s2 { fill: #7a3920 } 
		.s3 { fill: #ffffff } 
		.s4 { fill: #a2c255 } 
		.s5 { fill: #357036 } 
		.s6 { fill: #7ea844 } 
		.s7 { fill: #db5717 } 
	</style>
	<g id="OBJECTS">
		<g id="&lt;Group&gt;">
			<g id="&lt;Group&gt;">
				<g id="&lt;Group&gt;">
					<path id="&lt;Path&gt;" class="s0" d="m1032.6 404.4h-69.5-69.6l3.7 60.8c1.6 27.3 11 53.7 27.6 75.5 2.1 2.6 4.1 5.1 6 7.1 0 2.5 14.5 4.6 32.3 4.6 17.8 0 32.2-2.1 32.2-4.6h0.1c2-2.1 4.1-4.6 6.2-7.4 16.6-21.8 26-48.3 27.6-75.7z"/>
				</g>
				<g id="&lt;Group&gt;">
					<path id="&lt;Path&gt;" class="s1" d="m1032.6 404.4c0 5.5-31.1 9.9-69.5 9.9-38.4 0-69.6-4.4-69.6-9.9 0-5.5 31.2-10 69.6-10 38.4 0 69.5 4.5 69.5 10z"/>
				</g>
				<g id="&lt;Group&gt;">
					<path id="&lt;Path&gt;" class="s2" d="m1017.3 404.4c0 3.2-24.4 5.8-54.5 5.8-30.1 0-54.5-2.6-54.5-5.8 0-3.2 24.4-5.8 54.5-5.8 30.1 0 54.5 2.6 54.5 5.8z"/>
				</g>
				<path id="&lt;Path&gt;" class="s3" d="m963.1 493.4c-26.5 0-66-2.8-66-10.3 0-0.6 0.5-1 1-1 0.6 0 1 0.4 1 1 0 3.4 24.3 8.3 64 8.3 39.6 0 63.9-4.9 63.9-8.3 0-0.6 0.5-1 1-1 0.6 0 1 0.4 1 1 0 7.5-39.4 10.3-65.9 10.3z"/>
				<path id="&lt;Path&gt;" class="s3" d="m963.1 484c-26.9 0-66.9-2.8-66.9-10.4 0-0.5 0.4-1 1-1 0.5 0 1 0.5 1 1 0 3.5 24.7 8.4 64.9 8.4 40.2 0 64.9-4.9 64.9-8.4 0-0.5 0.4-1 1-1 0.5 0 1 0.5 1 1 0 7.6-40 10.4-66.9 10.4z"/>
			</g>
			<g id="&lt;Group&gt;">
				<g id="&lt;Group&gt;">
					<g id="&lt;Group&gt;">
						<path id="&lt;Path&gt;" class="s4" d="m1042.9 252.7c-11.6-7.8-23.9 5.9-23.9 5.9 0 0 27-54.4 8-67.6-15.5-10.8-32.7 13.8-47 44.1-4-3.2-10.9-5.9-20.6-0.2-16.3 9.8-35.7 117.6 4.3 165.2 0 0 19.9-42.3 51.8-81.7 18.7-23.2 47.5-52.1 27.4-65.7z"/>
					</g>
					<path id="&lt;Path&gt;" class="s5" d="m963.7 401.1c-0.6 0-1-0.4-1-1-5.3-105.6 54.2-194.6 54.8-195.5 0.3-0.5 0.9-0.6 1.4-0.3 0.4 0.3 0.5 1 0.2 1.4-0.6 0.9-59.6 89.4-54.4 194.3 0 0.6-0.4 1-1 1.1q0 0 0 0z"/>
				</g>
				<g id="&lt;Group&gt;">
					<g id="&lt;Group&gt;">
						<path id="&lt;Path&gt;" class="s5" d="m938.9 210.4c-4.2-36.3-26.2-51.5-26.2-51.5-8.1 3.1-16 18.4 1.3 92.2q0 0 0 0c5.5 1.2 10.2 3.6 14 6.4 0 0 15.1-10.7 10.9-47.1z"/>
					</g>
					<g id="&lt;Group&gt;">
						<path id="&lt;Path&gt;" class="s6" d="m957.9 277.8c-1-75.9-33.7-121.8-45.2-118.9 0 0 22 15.2 26.2 51.5 4.2 36.4-10.9 47.1-10.9 47.1-3.8-2.8-8.5-5.2-14-6.4-5.4-1.1-11.6-1-18.4 1.3-27.9 9.2 50.1 111.5 50.1 111.5 0 0 13.1-10.3 12.2-86.1z"/>
					</g>
				</g>
				<g id="&lt;Group&gt;">
					<g id="&lt;Group&gt;">
						<path id="&lt;Path&gt;" class="s4" d="m949.8 369.2c0 0-50.4-64.5-103.6-81.9-53.1-17.4-32.8-46.4 20.1-34.3 52.8 12.1 73.6 81.5 73.6 81.5 0 0-87.5-72.6-79.1-92.4 8.3-19.8 53.9-11.8 74.1 35 20.1 46.8 14.9 92.1 14.9 92.1z"/>
					</g>
					<path id="&lt;Path&gt;" class="s5" d="m949.8 370.2c-0.4 0-0.8-0.3-0.9-0.7-20.2-76.3-86.8-116.2-87.5-116.6-0.5-0.2-0.6-0.8-0.3-1.3 0.2-0.5 0.9-0.7 1.3-0.4 0.7 0.4 68 40.7 88.4 117.7 0.1 0.6-0.2 1.1-0.7 1.3q-0.1 0-0.3 0z"/>
				</g>
				<g id="&lt;Group&gt;">
					<path id="&lt;Path&gt;" class="s4" d="m962.8 402.3c0 0 32.8-85.5 107.2-84 74.4 1.4-99.4 73.8-107.2 84z"/>
				</g>
				<path id="&lt;Path&gt;" class="s5" d="m962.8 403.3q-0.4 0-0.7-0.2c-0.4-0.3-0.5-1-0.1-1.4 0.5-0.7 54.4-69.7 113.3-84.1 0.5-0.1 1 0.2 1.2 0.7 0.1 0.6-0.2 1.1-0.8 1.2-58.2 14.2-111.6 82.7-112.2 83.4-0.1 0.3-0.4 0.4-0.7 0.4z"/>
				<g id="&lt;Group&gt;">
					<g id="&lt;Group&gt;">
						<path id="&lt;Path&gt;" class="s5" d="m867.5 321.5c0 0-11.4 14.7 19.1 24.2q0.1 0 0.1 0c1.8-9.9 6.8-16.6 6.8-16.6-10.2-1.4-18.8-4.2-26-7.6z"/>
					</g>
					<g id="&lt;Group&gt;">
						<path id="&lt;Path&gt;" class="s6" d="m881.3 308.3c-45.7-16.7-47.5-24.1-47.5-24.1 0 0 6 23.9 33.7 37.3 7.2 3.4 15.8 6.2 26 7.6 0 0-5 6.7-6.8 16.6-2 10.2-0.5 24 13.3 37.7 27.1 27.1 65.2 20 65.2 20 0 0-24.4-73.5-83.9-95.1z"/>
					</g>
				</g>
			</g>
			<g id="&lt;Group&gt;">
				<g id="&lt;Group&gt;">
					<path id="&lt;Path&gt;" class="s7" d="m934.6 435.5c0 2.6-2 4.6-4.6 4.6-2.5 0-4.6-2-4.6-4.6 0-2.5 2.1-4.6 4.6-4.6 2.6 0 4.6 2.1 4.6 4.6z"/>
				</g>
				<g id="&lt;Group&gt;">
					<path id="&lt;Path&gt;" class="s7" d="m978.8 435.5c0 2.6-2.1 4.6-4.6 4.6-2.6 0-4.7-2-4.7-4.6 0-2.5 2.1-4.6 4.7-4.6 2.5 0 4.6 2.1 4.6 4.6z"/>
				</g>
				<g id="&lt;Group&gt;">
					<path id="&lt;Path&gt;" class="s7" d="m956.7 453.5c0 2.5-2.1 4.6-4.6 4.6-2.6 0-4.6-2.1-4.6-4.6 0-2.5 2-4.6 4.6-4.6 2.5 0 4.6 2.1 4.6 4.6z"/>
				</g>
				<g id="&lt;Group&gt;">
					<path id="&lt;Path&gt;" class="s7" d="m1000.8 453.5c0 2.5-2 4.6-4.6 4.6-2.5 0-4.6-2.1-4.6-4.6 0-2.5 2.1-4.6 4.6-4.6 2.6 0 4.6 2.1 4.6 4.6z"/>
				</g>
				<g id="&lt;Group&gt;">
					<path id="&lt;Path&gt;" class="s7" d="m1022.9 435.5c0 2.6-2.1 4.6-4.6 4.6-2.6 0-4.6-2-4.6-4.6 0-2.5 2-4.6 4.6-4.6 2.5 0 4.6 2.1 4.6 4.6z"/>
				</g>
				<g id="&lt;Group&gt;">
					<path id="&lt;Path&gt;" class="s7" d="m912.6 453.5c0 2.5-2.1 4.6-4.6 4.6-2.6 0-4.6-2.1-4.6-4.6 0-2.5 2-4.6 4.6-4.6 2.5 0 4.6 2.1 4.6 4.6z"/>
				</g>
				<g id="&lt;Group&gt;">
					<g id="&lt;Group&gt;">
						<path id="&lt;Path&gt;" class="s7" d="m949.8 508.6c0 2-1.5 3.5-3.4 3.5-2 0-3.5-1.5-3.5-3.5 0-1.9 1.5-3.4 3.5-3.4 1.9 0 3.4 1.5 3.4 3.4z"/>
					</g>
					<g id="&lt;Group&gt;">
						<path id="&lt;Path&gt;" class="s7" d="m983.3 508.6c0 2-1.6 3.5-3.5 3.5-1.9 0-3.5-1.5-3.5-3.5 0-1.9 1.6-3.4 3.5-3.4 1.9 0 3.5 1.5 3.5 3.4z"/>
					</g>
					<g id="&lt;Group&gt;">
						<path id="&lt;Path&gt;" class="s7" d="m966.6 522.3c0 1.9-1.6 3.4-3.5 3.4-2 0-3.5-1.5-3.5-3.4 0-2 1.5-3.5 3.5-3.5 1.9 0 3.5 1.5 3.5 3.5z"/>
					</g>
					<g id="&lt;Group&gt;">
						<path id="&lt;Path&gt;" class="s7" d="m933.1 522.3c0 1.9-1.5 3.4-3.4 3.4-2 0-3.5-1.5-3.5-3.4 0-2 1.5-3.5 3.5-3.5 1.9 0 3.4 1.5 3.4 3.5z"/>
					</g>
					<g id="&lt;Group&gt;">
						<path id="&lt;Path&gt;" class="s7" d="m1016.7 508.6c0 2-1.6 3.5-3.5 3.5-1.9 0-3.5-1.5-3.5-3.5 0-1.9 1.6-3.4 3.5-3.4 1.9 0 3.5 1.5 3.5 3.4z"/>
					</g>
					<g id="&lt;Group&gt;">
						<path id="&lt;Path&gt;" class="s7" d="m1000 522.3c0 1.9-1.6 3.4-3.5 3.4-1.9 0-3.5-1.5-3.5-3.4 0-2 1.6-3.5 3.5-3.5 1.9 0 3.5 1.5 3.5 3.5z"/>
					</g>
					<g id="&lt;Group&gt;">
						<path id="&lt;Path&gt;" class="s7" d="m916.4 508.6c0 2-1.5 3.5-3.5 3.5-1.9 0-3.4-1.5-3.4-3.5 0-1.9 1.5-3.4 3.4-3.4 2 0 3.5 1.5 3.5 3.4z"/>
					</g>
				</g>
			</g>
		</g>
	</g>
</svg>